<svg width="72" height="72" fill="none" xmlns="http://www.w3.org/2000/svg"><mask id="a" maskUnits="userSpaceOnUse" x="0" y="-1" width="72" height="72"><path fill="#fff" d="M0-.527h72v71.368H0z"/></mask><g mask="url(#a)"><path fill-rule="evenodd" clip-rule="evenodd" d="M58.509 36.037c0-10.907-7.851-19.947-18.009-21.396V8.394c13.488 1.469 24 13.286 24 27.643 0 7.494-3.78 13.988-3.78 13.988h-7.194a21.965 21.965 0 004.98-13.988h.003zM16.5 58.947c-5.553-5.32-9-12.686-9-20.817 0-8.13 3.447-15.483 9-20.815v11.33a22.075 22.075 0 00-2.16 9.485c0 3.379.786 6.59 2.16 9.487v11.33zm0 5.947l4.989-5.998V11.442L16.5 5.42h18.108V55.2H64.5l-6.681 9.682-41.319.012z" fill="#EFBA52"/></g></svg>